<svg width="35" height="35" viewBox="0 0 35 35" fill="none" xmlns="http://www.w3.org/2000/svg">
<circle cx="17.5" cy="17.5" r="17.5" fill="#FFCF0F"/>
<path d="M25.1563 17.7179H23.5153C23.6825 18.1759 23.7739 18.6701 23.7739 19.1852V25.3873C23.7739 25.6021 23.7365 25.8082 23.6685 25.9999H26.3815C27.3949 25.9999 28.2194 25.1755 28.2194 24.1621V20.781C28.2194 19.092 26.8453 17.7179 25.1563 17.7179Z" fill="#FFFEFE"/>
<path d="M11.4455 19.1852C11.4455 18.67 11.5369 18.1759 11.7042 17.7179H10.0631C8.37413 17.7179 7 19.092 7 20.781V24.1621C7 25.1755 7.82445 26 8.83789 26H11.5509C11.4829 25.8082 11.4455 25.6021 11.4455 25.3873V19.1852Z" fill="#FFFEFE"/>
<path d="M19.4855 16.1221H15.7339C14.0449 16.1221 12.6708 17.4962 12.6708 19.1852V25.3873C12.6708 25.7257 12.9451 26 13.2834 26H21.936C22.2744 26 22.5487 25.7257 22.5487 25.3873V19.1852C22.5487 17.4962 21.1745 16.1221 19.4855 16.1221Z" fill="#FFFEFE"/>
<path d="M17.6097 8C15.5784 8 13.9259 9.65255 13.9259 11.6839C13.9259 13.0617 14.6864 14.265 15.8094 14.8968C16.3421 15.1964 16.9562 15.3677 17.6097 15.3677C18.2632 15.3677 18.8773 15.1964 19.41 14.8968C20.5331 14.265 21.2935 13.0616 21.2935 11.6839C21.2935 9.65259 19.641 8 17.6097 8Z" fill="#FFFEFE"/>
<path d="M11.141 11.4337C9.62188 11.4337 8.38602 12.6696 8.38602 14.1887C8.38602 15.7079 9.62188 16.9437 11.141 16.9437C11.5264 16.9437 11.8933 16.8639 12.2267 16.7204C12.803 16.4723 13.2782 16.0331 13.5722 15.4829C13.7786 15.0968 13.896 14.6563 13.896 14.1887C13.896 12.6696 12.6602 11.4337 11.141 11.4337Z" fill="#FFFEFE"/>
<path d="M24.0784 11.4337C22.5593 11.4337 21.3234 12.6696 21.3234 14.1887C21.3234 14.6563 21.4408 15.0968 21.6472 15.4829C21.9412 16.0331 22.4164 16.4723 22.9928 16.7204C23.3261 16.8639 23.6931 16.9437 24.0784 16.9437C25.5975 16.9437 26.8334 15.7079 26.8334 14.1887C26.8334 12.6696 25.5975 11.4337 24.0784 11.4337Z" fill="#FFFEFE"/>
</svg>
