<svg width="28" height="22" viewBox="0 0 28 22" fill="none" xmlns="http://www.w3.org/2000/svg">
<path fill-rule="evenodd" clip-rule="evenodd" d="M2.52842 2.4627H5.53486V1.35632H2.52842V2.4627ZM14 7.75483C11.217 7.75483 8.9602 10.0199 8.9602 12.813C8.9602 15.6071 11.217 17.8712 14 17.8712C16.784 17.8712 19.0398 15.6071 19.0398 12.813C19.0398 10.0199 16.784 7.75483 14 7.75483ZM23.1496 6.31542C23.1496 6.81028 22.7498 7.21159 22.2567 7.21159H22.2387C21.7456 7.21159 21.3457 6.81028 21.3457 6.31542V6.29732C21.3457 5.80247 21.7456 5.40115 22.2387 5.40115H22.2567C22.7498 5.40115 23.1496 5.80247 23.1496 6.29732V6.31542ZM14 19.2732C10.4494 19.2732 7.5602 16.3744 7.5602 12.8099C7.5602 9.24633 10.4494 6.3466 14 6.3466C17.5506 6.3466 20.4398 9.24633 20.4398 12.8099C20.4398 16.3744 17.5506 19.2732 14 19.2732ZM24.9936 3.37245H21.3197C20.9449 3.37245 20.5951 3.18437 20.3877 2.87156L18.8123 0.500889C18.6049 0.188085 18.2551 0 17.8803 0H10.1197C9.74488 0 9.39513 0.188085 9.18769 0.500889L7.61231 2.87156C7.40487 3.18437 7.05512 3.37245 6.68032 3.37245H3.00644C1.34588 3.37245 0 4.72324 0 6.38985V18.4826C0 20.1492 1.34588 21.5 3.00644 21.5H24.9936C26.6541 21.5 28 20.1492 28 18.4826V6.38985C28 4.72324 26.6541 3.37245 24.9936 3.37245Z" fill="#858E98"/>
</svg>
