<svg width="35" height="35" viewBox="0 0 35 35" fill="none" xmlns="http://www.w3.org/2000/svg">
<circle cx="17.5" cy="17.5" r="17.5" fill="#FFCF0F"/>
<path d="M15.2002 9C15.2002 10.3236 16.2766 11.4 17.6002 11.4C18.9226 11.4 20.0002 10.3236 20.0002 9H15.2002Z" fill="#FFFEFE"/>
<path d="M26.8978 11.4792L22.6978 9.0792C22.6078 9.0276 22.5046 9 22.4002 9H21.2002C21.2002 10.9848 19.585 12.6 17.6002 12.6C15.6154 12.6 14.0002 10.9848 14.0002 9H12.8002C12.6958 9 12.5938 9.0276 12.5026 9.0792L8.30261 11.4792C8.06261 11.616 7.94741 11.8992 8.02301 12.1644L9.22301 16.3644C9.31181 16.6764 9.63581 16.86 9.94541 16.782L11.6002 16.3692V26.4C11.6002 26.7312 11.869 27 12.2002 27H23.0002C23.3314 27 23.6002 26.7312 23.6002 26.4V16.3692L25.255 16.782C25.5646 16.8612 25.8874 16.6764 25.9774 16.3644L27.1774 12.1644C27.253 11.8992 27.1378 11.616 26.8978 11.4792Z" fill="#FFFEFE"/>
</svg>
