<svg width="46" height="64" viewBox="0 0 46 64" fill="none" xmlns="http://www.w3.org/2000/svg">
<g clip-path="url(#clip0)">
<path d="M7.1796 64V46.1987H14.3592C14.3592 57.6424 21.9611 58.914 27.029 56.3709C32.097 53.8279 31.2523 46.1987 31.2523 46.1987L38.8542 46.6226V64H7.1796Z" fill="#FFCD01"/>
<path d="M0 54.5568V62.9489C0 63.2299 0.111238 63.4994 0.309243 63.6981C0.507248 63.8968 0.7758 64.0085 1.05582 64.0085C1.33584 64.0085 1.60439 63.8968 1.8024 63.6981C2.0004 63.4994 2.11164 63.2299 2.11164 62.9489V54.5568C2.11425 53.1691 2.50831 51.8105 3.24822 50.6381C3.98814 49.4658 5.04366 48.5276 6.29269 47.9322V62.9489C6.29269 63.2299 6.40393 63.4994 6.60193 63.6981C6.79994 63.8968 7.06849 64.0085 7.34851 64.0085C7.62853 64.0085 7.89709 63.8968 8.09509 63.6981C8.29309 63.4994 8.40433 63.2299 8.40433 62.9489V47.2964C8.75114 47.2444 9.10107 47.216 9.45171 47.2117H13.6328V49.3012C13.6328 51.8057 14.6241 54.2076 16.3887 55.9785C18.1533 57.7495 20.5467 58.7444 23.0422 58.7444C25.5378 58.7444 27.9311 57.7495 29.6957 55.9785C31.4604 54.2076 32.4517 51.8057 32.4517 49.3012V47.2074H36.6328C36.9833 47.2106 37.3332 47.2375 37.6801 47.2879V62.9404C37.671 63.0838 37.6913 63.2275 37.7398 63.3627C37.7882 63.4978 37.8637 63.6216 37.9616 63.7264C38.0596 63.8312 38.1779 63.9146 38.3093 63.9717C38.4406 64.0288 38.5823 64.0582 38.7254 64.0582C38.8685 64.0582 39.0102 64.0288 39.1415 63.9717C39.2729 63.9146 39.3912 63.8312 39.4891 63.7264C39.5871 63.6216 39.6626 63.4978 39.711 63.3627C39.7594 63.2275 39.7797 63.0838 39.7707 62.9404V47.9364C41.0197 48.5307 42.0753 49.468 42.8153 50.6397C43.5553 51.8114 43.9493 53.1696 43.9517 54.5568V62.9489C43.9517 63.2299 44.0629 63.4994 44.2609 63.6981C44.459 63.8968 44.7275 64.0085 45.0075 64.0085C45.2875 64.0085 45.5561 63.8968 45.7541 63.6981C45.9521 63.4994 46.0633 63.2299 46.0633 62.9489V54.5568C46.0588 52.4928 45.3815 50.4869 44.1347 48.8454C42.8879 47.2039 41.1402 46.0168 39.1583 45.4654H39.1118C38.3108 45.2457 37.4843 45.1332 36.6539 45.1306H31.3621V40.7438C33.9011 39.2727 36.0102 37.1575 37.4778 34.6105C38.9455 32.0634 39.7202 29.1738 39.7242 26.2315V23.0824C40.0005 23.0824 40.2657 22.9728 40.4618 22.7775C40.658 22.5822 40.7693 22.317 40.7716 22.0397V17.8437C40.7716 17.7059 40.7445 17.5694 40.6918 17.4421C40.6391 17.3148 40.5619 17.1992 40.4646 17.1019C40.3672 17.0047 40.2517 16.9277 40.1247 16.8753C39.9976 16.8229 39.8615 16.7963 39.7242 16.7968V13.6434C39.7209 11.6002 38.9761 9.62811 37.6291 8.09603C36.282 6.56395 34.425 5.5768 32.4053 5.31921V1.05113C32.4058 0.91329 32.3792 0.776702 32.3271 0.649198C32.2749 0.521694 32.1981 0.405785 32.1012 0.308123C32.0043 0.210461 31.8891 0.132969 31.7623 0.0800931C31.6354 0.0272172 31.4994 -1.12961e-06 31.3621 0L20.9053 0C17.0248 0.00448901 13.3046 1.55379 10.5611 4.30791C7.81763 7.06203 6.27493 10.796 6.27158 14.6903V16.8095C6.13423 16.809 5.99813 16.8356 5.87108 16.888C5.74403 16.9404 5.62854 17.0174 5.53122 17.1147C5.43391 17.2119 5.3567 17.3275 5.30401 17.4548C5.25132 17.5821 5.2242 17.7186 5.2242 17.8564V22.0397C5.2242 22.3185 5.33455 22.5859 5.53097 22.783C5.72739 22.9801 5.99379 23.0909 6.27158 23.0909V26.24C6.27531 29.1829 7.04982 32.0732 8.51746 34.621C9.98511 37.1688 12.0943 39.2847 14.6337 40.7566V44.0795V45.1264H9.40948C6.91715 45.1297 4.52767 46.124 2.76414 47.8914C1.00061 49.6589 0.00670058 52.0556 0 54.5568H0ZM23 56.6506C21.0592 56.6495 19.1983 55.8752 17.826 54.498C16.4536 53.1208 15.6822 51.2531 15.681 49.3054V47.2159C15.9588 47.2159 16.2252 47.1051 16.4217 46.908C16.6181 46.7109 16.7284 46.4435 16.7284 46.1648V41.7822C20.749 43.4265 25.251 43.4265 29.2716 41.7822V44.0795V46.1732C29.2727 46.4506 29.3829 46.7162 29.5783 46.9123C29.7737 47.1084 30.0384 47.219 30.3147 47.2201V49.3139C30.3114 51.2594 29.5395 53.1242 28.1683 54.4995C26.7972 55.8748 24.9386 56.6484 23 56.6506ZM7.31895 20.9844V18.8864H38.681V20.9844H7.31895ZM8.3621 14.6903C8.37215 11.3557 9.698 8.16083 12.0495 5.80486C14.401 3.44889 17.5867 2.12367 20.9095 2.11921H30.3147V6.31947C30.3147 6.45731 30.3418 6.59379 30.3945 6.72108C30.4472 6.84837 30.5244 6.96397 30.6217 7.06123C30.7191 7.1585 30.8346 7.23553 30.9616 7.28789C31.0887 7.34025 31.2248 7.36691 31.3621 7.36636C33.0218 7.36858 34.6132 8.03009 35.7884 9.20631C36.9635 10.3825 37.627 11.9778 37.6337 13.6434V16.7883H8.3621V14.6903ZM8.3621 26.2315V23.0824H37.6337V26.2315C37.5685 30.0839 35.9978 33.7563 33.2602 36.4575C30.5225 39.1587 26.837 40.6723 22.9979 40.6723C19.1587 40.6723 15.4733 39.1587 12.7356 36.4575C9.99796 33.7563 8.42731 30.0839 8.3621 26.2315Z" fill="#E0E0E0"/>
</g>
<defs>
<clipPath id="clip0">
<rect width="46" height="64" fill="white"/>
</clipPath>
</defs>
</svg>
