<svg width="25" height="25" viewBox="0 0 25 25" fill="none" xmlns="http://www.w3.org/2000/svg">
<path d="M0.436713 7.67967L2.504 5.61238L0.949947 4.05891C0.812545 3.92165 0.735299 3.73566 0.735299 3.54113C0.735299 3.3466 0.812545 3.16061 0.949898 3.02331L3.03057 0.942641C3.30522 0.667982 3.7916 0.667982 4.06626 0.942641L5.61973 2.4967L7.68731 0.429017C8.25934 -0.143006 9.18683 -0.143006 9.7589 0.429017C10.331 1.00104 10.331 1.92853 9.7589 2.5006L2.50835 9.75125C1.93623 10.3233 1.00874 10.3233 0.436713 9.75125C-0.135309 9.17923 -0.135309 8.25174 0.436713 7.67967Z" fill="#FFCF0F"/>
<path d="M15.2412 22.4994L22.4918 15.2487C23.0639 14.6767 23.9913 14.6767 24.5634 15.2487C25.1354 15.8208 25.1354 16.7483 24.5634 17.3203L22.4958 19.388L24.0468 20.9384C24.1842 21.0757 24.2614 21.2617 24.2614 21.4562C24.2614 21.6507 24.1842 21.8367 24.0468 21.974L21.9661 24.054C21.8231 24.1971 21.6357 24.2686 21.4483 24.2686C21.2609 24.2686 21.0735 24.1971 20.9305 24.054L19.3801 22.5036L17.3128 24.571C16.7408 25.143 15.8133 25.143 15.2412 24.571C14.6691 23.9989 14.6691 23.0714 15.2412 22.4994Z" fill="#FFCF0F"/>
<path d="M11.8303 8.71558L16.2769 13.1773L13.1694 16.2847L8.72284 11.8229L11.8303 8.71558Z" fill="#FFCF0F"/>
<path d="M2.50817 11.8228L11.8304 2.50055C12.4024 1.92853 13.3299 1.92853 13.902 2.50055C14.4741 3.07267 14.4741 4.00006 13.902 4.57218L4.57975 13.8944C4.00773 14.4664 3.08024 14.4664 2.50817 13.8944C1.93605 13.3224 1.93605 12.3949 2.50817 11.8228Z" fill="#FFCF0F"/>
<path d="M11.098 20.4277L20.4203 11.1054C20.9923 10.5334 21.9198 10.5334 22.4918 11.1054C23.0639 11.6775 23.0639 12.605 22.4918 13.177L13.1696 22.4993C12.5975 23.0713 11.67 23.0713 11.098 22.4993C10.5258 21.9272 10.5258 20.9997 11.098 20.4277Z" fill="#FFCF0F"/>
</svg>
