<svg width="35" height="35" viewBox="0 0 35 35" fill="none" xmlns="http://www.w3.org/2000/svg">
<circle cx="17.5" cy="17.5" r="17.5" fill="#FFCF0F"/>
<path d="M16.7499 17.9999C16.7499 16.7594 17.7594 15.7499 18.9999 15.7499H21.9999V9.74998C21.9999 9.33599 21.6646 9 21.2499 9H10.75C10.3352 9 10 9.33599 10 9.74998V26.2498C10 26.6638 10.3352 26.9998 10.75 26.9998H21.2499C21.6646 26.9998 21.9999 26.6638 21.9999 26.2498V20.9999V20.2499H18.9999C17.7594 20.2499 16.7499 19.2404 16.7499 17.9999Z" fill="#FFFEFE"/>
<path d="M27.8311 18.4738C27.8334 18.471 27.8353 18.468 27.8375 18.4652C27.8504 18.4489 27.8629 18.4324 27.8744 18.4151C27.8798 18.407 27.8843 18.3986 27.8894 18.3903C27.897 18.3779 27.9048 18.3656 27.9116 18.3527C27.9173 18.3422 27.922 18.3313 27.9271 18.3205C27.9324 18.3094 27.938 18.2984 27.9427 18.287C27.9478 18.2747 27.952 18.2621 27.9564 18.2496C27.96 18.2393 27.9641 18.2291 27.9673 18.2185C27.9717 18.2038 27.9752 18.1889 27.9787 18.1741C27.9808 18.1653 27.9833 18.1568 27.9851 18.148C27.9892 18.1275 27.9921 18.107 27.9945 18.0863C27.9949 18.0828 27.9956 18.0794 27.996 18.0758C28.0011 18.0254 28.0011 17.9745 27.996 17.9241C27.9956 17.9205 27.9949 17.9171 27.9945 17.9135C27.9921 17.8929 27.9892 17.8723 27.9851 17.8519C27.9833 17.8431 27.9808 17.8345 27.9787 17.8258C27.9752 17.8109 27.9717 17.796 27.9673 17.7814C27.9641 17.7708 27.96 17.7606 27.9564 17.7502C27.9519 17.7377 27.9478 17.7252 27.9427 17.7129C27.938 17.7015 27.9324 17.6905 27.9271 17.6793C27.922 17.6686 27.9173 17.6577 27.9116 17.6471C27.9047 17.6343 27.897 17.622 27.8894 17.6096C27.8843 17.6013 27.8798 17.5929 27.8744 17.5848C27.8629 17.5675 27.8504 17.5509 27.8375 17.5347C27.8353 17.5319 27.8334 17.5289 27.8311 17.5261C27.8142 17.5054 27.7963 17.4856 27.7773 17.4669L24.7801 14.4697C24.4869 14.1764 24.0129 14.1764 23.7196 14.4697C23.4264 14.7629 23.4264 15.2369 23.7196 15.5302L25.4394 17.2499H18.9999C18.5852 17.2499 18.2499 17.5859 18.2499 17.9999C18.2499 18.4139 18.5852 18.7498 18.9999 18.7498H25.4394L23.7196 20.4696C23.4264 20.7628 23.4264 21.2368 23.7196 21.53C23.8659 21.6763 24.0579 21.7498 24.2499 21.7498C24.4419 21.7498 24.6339 21.6763 24.7801 21.53L27.7773 18.5329C27.7962 18.5142 27.8142 18.4945 27.8311 18.4738Z" fill="#FFFEFE"/>
</svg>
