<svg width="25" height="25" viewBox="0 0 25 25" fill="none" xmlns="http://www.w3.org/2000/svg">
<g clip-path="url(#clip0)">
<path d="M13.5 0C7.1488 0 2 5.1488 2 11.5C2 17.8512 7.1488 23 13.5 23C13.8465 23 14.1916 22.9845 14.5351 22.9536C14.8544 22.9249 15.1709 22.8811 15.485 22.8263L15.6057 22.805C21.445 21.7152 25.4938 16.3577 24.9476 10.4427C24.4014 4.52756 19.4402 0.00187174 13.5 0V0ZM12.5761 22.1927H12.549C12.2508 22.1663 11.9549 22.1265 11.6616 22.0754C11.6447 22.0724 11.6279 22.0705 11.6114 22.0673C11.3247 22.016 11.0409 21.9524 10.76 21.8781L10.692 21.8607C10.418 21.7864 10.147 21.7001 9.87986 21.6042C9.85216 21.5943 9.82427 21.5855 9.79657 21.5752C9.53471 21.479 9.27753 21.3712 9.02428 21.2546C8.99284 21.2406 8.96139 21.2271 8.92995 21.2121C8.68157 21.0972 8.43805 20.9677 8.19922 20.8314C8.16553 20.8123 8.13146 20.7932 8.09777 20.7743C7.86268 20.6371 7.63302 20.49 7.40766 20.3346C7.37359 20.3109 7.33915 20.2878 7.30527 20.2641C7.08385 20.107 6.86803 19.9403 6.65784 19.7658L6.6 19.7153V16.4833C6.60281 14.1556 8.48897 12.2695 10.8167 12.2667H16.1833C18.511 12.2695 20.3972 14.1556 20.4 16.4833V19.7156L20.3491 19.7581C20.1348 19.9371 19.9148 20.1063 19.6889 20.2661C19.659 20.2871 19.6287 20.3071 19.5989 20.3277C19.3709 20.4861 19.1373 20.635 18.8981 20.7751C18.8682 20.7925 18.8375 20.8089 18.8077 20.8262C18.5653 20.9641 18.3188 21.0944 18.0674 21.2117C18.0386 21.2252 18.0096 21.2378 17.9804 21.2501C17.7251 21.3678 17.4657 21.4762 17.2019 21.5732C17.1757 21.5829 17.1493 21.5913 17.1252 21.6005C16.8568 21.6967 16.5846 21.7837 16.3091 21.8584L16.243 21.8749C15.9617 21.9492 15.6778 22.0132 15.3906 22.0647C15.3742 22.0677 15.3577 22.0697 15.3412 22.0724C15.0476 22.1236 14.7513 22.1635 14.4529 22.1901H14.4258C14.1192 22.2165 13.8124 22.2307 13.5019 22.2307C13.1913 22.2307 12.8821 22.2191 12.5761 22.1927ZM21.1667 19.0049V16.4833C21.1635 13.7324 18.9342 11.5032 16.1833 11.5H10.8167C8.06576 11.5032 5.83652 13.7324 5.83333 16.4833V19.0046C1.70464 14.7907 1.75068 8.03465 5.93628 3.87732C10.1219 -0.279826 16.8781 -0.279826 21.0637 3.87732C25.2493 8.03465 25.2954 14.7907 21.1667 19.0046V19.0049Z" fill="#A1A1A1"/>
<path d="M13.5001 3.06665C11.383 3.06665 9.66675 4.78285 9.66675 6.89998C9.66675 9.01711 11.383 10.7333 13.5001 10.7333C15.6172 10.7333 17.3334 9.01711 17.3334 6.89998C17.3312 4.78379 15.6163 3.0689 13.5001 3.06665ZM13.5001 9.96665C11.8063 9.96665 10.4334 8.59373 10.4334 6.89998C10.4334 5.20624 11.8063 3.83332 13.5001 3.83332C15.1938 3.83332 16.5667 5.20624 16.5667 6.89998C16.5649 8.59279 15.1929 9.96478 13.5001 9.96665Z" fill="#A1A1A1"/>
</g>
<defs>
<clipPath id="clip0">
<rect x="2" width="23" height="23" fill="white"/>
</clipPath>
</defs>
</svg>
