<svg width="25" height="25" viewBox="0 0 25 25" fill="none" xmlns="http://www.w3.org/2000/svg">
<path d="M22.5047 11.8087C22.5047 10.5527 21.5576 9.51429 20.3402 9.36844V3.06424C20.3402 2.67825 20.0898 2.3514 19.7171 2.25096C19.3445 2.15061 18.9638 2.30725 18.7698 2.6409C17.4381 4.93201 15.3407 6.49803 12.5357 7.29554C10.4146 7.89856 8.66436 7.81116 8.64746 7.81014C8.62178 7.80867 8.59624 7.80989 8.57095 7.81243H4.08604C1.83301 7.81243 0 9.64544 0 11.8985C0 14.0206 1.62632 15.7694 3.69795 15.9656L5.05068 21.5282C5.22979 22.2647 5.88428 22.7791 6.64229 22.7791H7.58115C8.08696 22.7791 8.55635 22.551 8.86895 22.1533C9.18154 21.7556 9.29224 21.2456 9.17275 20.7541L8.01284 15.9845H8.57012C8.59551 15.987 8.62114 15.9883 8.64702 15.9868C8.6644 15.9858 10.4146 15.8983 12.5357 16.5014C15.3406 17.2989 17.4381 18.8649 18.7698 21.156C18.9247 21.4224 19.1985 21.576 19.4923 21.576C19.5665 21.576 19.6419 21.5662 19.7171 21.546C20.0898 21.4455 20.3402 21.1187 20.3402 20.7327V14.4284C21.5576 14.2826 22.5047 13.2443 22.5047 11.9882V11.8087ZM8.06953 20.3505L8.22378 20.9848C8.27207 21.1833 8.22739 21.3893 8.10112 21.5499C7.97495 21.7105 7.7854 21.8026 7.58115 21.8026H6.64229C6.33618 21.8026 6.07192 21.5949 5.99961 21.2974L4.70757 15.9845H7.00781L7.35269 17.4027H7.11929C6.84961 17.4027 6.63101 17.6213 6.63101 17.891C6.63101 18.1607 6.84961 18.3793 7.11929 18.3793H7.59014L7.83203 19.3739H7.679C7.40933 19.3739 7.19072 19.5925 7.19072 19.8622C7.19072 20.1319 7.40933 20.3505 7.679 20.3505H8.06953ZM8.13149 12.9359H5.09702C4.82734 12.9359 4.60874 13.1545 4.60874 13.4241C4.60874 13.6938 4.82734 13.9124 5.09702 13.9124H8.13149V15.0079H7.41816C7.40923 15.0075 7.40034 15.0068 7.39126 15.0068H4.08604C4.0814 15.0068 4.07681 15.0075 4.07217 15.0076C2.36401 15 0.976563 13.6084 0.976563 11.8985C0.976563 10.1839 2.37148 8.78899 4.08604 8.78899H8.13149V12.9359ZM19.3635 9.83855V13.9584V20.2557C17.9002 17.98 15.6305 16.3586 12.7698 15.5528C11.1858 15.1066 9.81773 15.0175 9.10806 15.0059V13.4241V8.79104C9.81782 8.77947 11.186 8.69031 12.7698 8.24417C15.6304 7.43831 17.9002 5.81692 19.3635 3.54124V9.83855ZM21.528 11.9882C21.528 12.7047 21.0169 13.3041 20.3401 13.4408V10.3561C21.0169 10.4929 21.528 11.0922 21.528 11.8087V11.9882Z" fill="#A1A1A1"/>
<path d="M22.651 9.04968C22.7683 9.04968 22.8861 9.00764 22.9796 8.92243L24.388 7.63981C24.5873 7.45822 24.6018 7.14943 24.4202 6.95002C24.2386 6.75065 23.9298 6.73625 23.7304 6.91779L22.3221 8.20036C22.1227 8.38195 22.1083 8.69074 22.2899 8.89016C22.3863 8.99597 22.5184 9.04968 22.651 9.04968Z" fill="#A1A1A1"/>
<path d="M22.9797 14.8746C22.7803 14.693 22.4715 14.7074 22.2899 14.9068C22.1083 15.1062 22.1227 15.415 22.3221 15.5966L23.7304 16.8792C23.8241 16.9644 23.9417 17.0065 24.0591 17.0065C24.1917 17.0065 24.3239 16.9528 24.4202 16.8469C24.6018 16.6476 24.5873 16.3387 24.388 16.1571L22.9797 14.8746Z" fill="#A1A1A1"/>
<path d="M24.5116 11.4102H23.4302C23.1605 11.4102 22.9419 11.6288 22.9419 11.8984C22.9419 12.1681 23.1605 12.3867 23.4302 12.3867H24.5116C24.7813 12.3867 24.9999 12.1681 24.9999 11.8984C24.9999 11.6288 24.7813 11.4102 24.5116 11.4102Z" fill="#A1A1A1"/>
</svg>
