<svg width="20" height="26" viewBox="0 0 20 26" fill="none" xmlns="http://www.w3.org/2000/svg">
<path d="M18.0566 0.00594212C13.8883 0.3733 10.8124 2.45387 9.01936 5.46166C7.81768 6.96808 5.41724 11.5672 4.54424 13.9748C2.96133 16.9687 1.58101 20.5309 0.50079 23.7421C-0.159529 25.7058 2.80539 26.987 3.46949 25.0144C4.27734 22.6119 5.25332 20.0143 6.35623 17.6038C7.45074 20.0534 8.5629 22.495 9.75702 24.898C10.6826 26.7634 13.4676 25.1275 12.5454 23.2684C11.316 20.7948 10.174 18.2818 9.04879 15.7603C9.06308 15.7115 9.08115 15.664 9.09628 15.6157C9.28374 15.6691 9.49054 15.6855 9.71835 15.6422C11.44 15.319 13.1616 14.9966 14.8845 14.6733C15.6204 14.5351 15.9025 13.7297 15.7865 13.085C15.4385 11.1528 14.3376 9.80859 12.9674 8.53671C12.764 7.84486 12.0856 7.23288 11.3328 6.62468C12.859 4.15742 15.3506 2.81829 18.5938 2.53247C20.249 2.38746 19.6975 -0.138227 18.0566 0.00594212ZM11.7838 10.9884C12.2096 11.4314 12.5719 11.8976 12.8455 12.4373C12.0124 12.5936 11.179 12.7495 10.3459 12.9059C10.7662 12.2292 11.25 11.5903 11.7838 10.9884Z" fill="#737CA9"/>
<path d="M15.348 8.78884C16.5725 8.78884 17.5652 7.79618 17.5652 6.57167C17.5652 5.34716 16.5725 4.35449 15.348 4.35449C14.1235 4.35449 13.1309 5.34716 13.1309 6.57167C13.1309 7.79618 14.1235 8.78884 15.348 8.78884Z" fill="#737CA9"/>
</svg>
