<?xml version="1.0" encoding="utf-8"?>
<!-- Generator: Adobe Illustrator 16.0.3, SVG Export Plug-In . SVG Version: 6.00 Build 0)  -->
<!DOCTYPE svg PUBLIC "-//W3C//DTD SVG 1.1//EN" "http://www.w3.org/Graphics/SVG/1.1/DTD/svg11.dtd">
<svg version="1.1" id="Слой_1" xmlns="http://www.w3.org/2000/svg" xmlns:xlink="http://www.w3.org/1999/xlink" x="0px" y="0px"
	 width="20px" height="20px" viewBox="0 0 20 20" enable-background="new 0 0 20 20" xml:space="preserve">
<path fill="#FFFFFF" d="M19.926,10.063c0,5.448-4.443,9.864-9.926,9.864c-5.482,0-9.926-4.416-9.926-9.864S4.518,0.199,10,0.199
	C15.482,0.199,19.926,4.615,19.926,10.063z M15.235,6.651c-0.324-0.322-0.847-0.322-1.169,0l-4.793,4.761L7.17,9.322
	C6.846,9.001,6.324,9.001,6,9.322c-0.324,0.321-0.324,0.841,0,1.163l2.688,2.669c0.161,0.162,0.373,0.242,0.585,0.242
	s0.424-0.08,0.584-0.242l5.377-5.341C15.559,7.492,15.559,6.972,15.235,6.651z"/>
</svg>
