<svg width="25" height="25" viewBox="0 0 25 25" fill="none" xmlns="http://www.w3.org/2000/svg">
<path d="M24.5833 7.50014H23.3333V6.87514C23.3333 6.06973 22.6804 5.41682 21.875 5.41682C21.6583 5.41801 21.4447 5.46801 21.25 5.56306V5.00015C21.25 4.07969 20.5038 3.3335 19.5833 3.3335C18.6629 3.3335 17.9167 4.07969 17.9167 5.00015V7.50014H16.25V7.08347C16.253 6.39613 15.6983 5.83645 15.0109 5.83338C14.6987 5.83197 14.3973 5.94801 14.1667 6.15848C13.6956 5.72515 12.971 5.72515 12.5 6.15848C12.029 5.72515 11.3044 5.72515 10.8333 6.15848C10.3255 5.69525 9.53833 5.7314 9.0751 6.23921C8.86469 6.46988 8.74865 6.77123 8.75 7.08347V7.50014H7.08333V5.00015C7.08333 4.07969 6.33714 3.3335 5.41667 3.3335C4.4962 3.3335 3.75 4.07969 3.75 5.00015V5.56306C3.55526 5.46801 3.34167 5.41801 3.125 5.41682C2.31958 5.41682 1.66667 6.06973 1.66667 6.87514V7.50014H0.416667C0.186562 7.50014 0 7.6867 0 7.9168V10.4168C0 10.6469 0.186562 10.8334 0.416667 10.8334H1.66667V11.4584C1.66667 12.2639 2.31958 12.9168 3.125 12.9168C3.34167 12.9156 3.55526 12.8656 3.75 12.7705V13.3334C3.75 14.2539 4.4962 15.0001 5.41667 15.0001C6.33714 15.0001 7.08333 14.2539 7.08333 13.3334V10.8334H7.91667V12.2264C7.91531 12.7791 8.1351 13.3095 8.52708 13.6993L9.58333 14.7559V21.6667H10.4167V14.5834C10.4167 14.4729 10.3727 14.367 10.2946 14.2888L9.11625 13.1101C8.88245 12.8753 8.75083 12.5577 8.75 12.2264V9.58346H11.1904C11.3482 9.58132 11.4977 9.65377 11.5938 9.77887C11.5967 9.78304 11.6 9.7872 11.6029 9.79179C11.6208 9.82022 11.6348 9.8509 11.6446 9.88304C11.6524 9.90871 11.6578 9.93507 11.6604 9.96179C11.6633 9.98793 11.6633 10.0144 11.6604 10.0405C11.6595 10.0545 11.6577 10.0685 11.655 10.0822C11.6456 10.1261 11.6294 10.1682 11.6071 10.2072C11.5344 10.3362 11.3981 10.4162 11.25 10.4168H10C9.7699 10.4168 9.58333 10.6033 9.58333 10.8334V11.6668C9.58328 11.8462 9.69812 12.0055 9.86833 12.0622L10.785 12.3684C11.5292 12.6155 12.0833 13.7418 12.0833 14.5834H12.9167C12.9167 13.4372 12.2033 11.9618 11.0504 11.5776L10.4167 11.3664V11.2501H11.25C11.6007 11.2467 11.9336 11.0954 12.1667 10.8334H15.8333V12.3614C15.8328 12.6317 15.7452 12.8947 15.5833 13.1113L14.6667 14.3334C14.6126 14.4056 14.5833 14.4933 14.5833 14.5834V21.6667H15.4167V14.7222L16.25 13.6113C16.5197 13.2504 16.6658 12.812 16.6667 12.3614V10.8334H17.9167V13.3334C17.9167 14.2539 18.6629 15.0001 19.5833 15.0001C20.5038 15.0001 21.25 14.2539 21.25 13.3334V12.7705C21.4447 12.8656 21.6583 12.9156 21.875 12.9168C22.6804 12.9168 23.3333 12.2639 23.3333 11.4584V10.8334H24.5833C24.8134 10.8334 25 10.6469 25 10.4168V7.9168C25 7.6867 24.8134 7.50014 24.5833 7.50014ZM1.66667 10.0001H0.833333V8.33346H1.66667V10.0001ZM3.75 11.4584C3.75 11.8036 3.47016 12.0834 3.125 12.0834C2.77984 12.0834 2.5 11.8036 2.5 11.4584V6.87514C2.5 6.52999 2.77984 6.25014 3.125 6.25014C3.47016 6.25014 3.75 6.52999 3.75 6.87514V11.4584ZM6.25 13.3334C6.25 13.7937 5.87693 14.1668 5.41667 14.1668C4.95641 14.1668 4.58333 13.7937 4.58333 13.3334V5.00015C4.58333 4.53989 4.95641 4.16682 5.41667 4.16682C5.87693 4.16682 6.25 4.53989 6.25 5.00015V13.3334ZM8.33333 8.75013C8.10323 8.75013 7.91667 8.93669 7.91667 9.16679V10.0001H7.08333V8.33346H8.75C8.75047 8.41221 8.75838 8.49081 8.77375 8.56805C8.77833 8.59263 8.78625 8.61513 8.79208 8.63888C8.80167 8.67596 8.80875 8.71429 8.82125 8.75013H8.33333ZM10.4167 8.33346C10.4167 8.56357 10.2301 8.75013 10 8.75013C9.7699 8.75013 9.58333 8.56357 9.58333 8.33346V7.08347C9.58333 6.85337 9.7699 6.66681 10 6.66681C10.2301 6.66681 10.4167 6.85337 10.4167 7.08347V8.33346ZM12.0833 8.33346C12.0833 8.56357 11.8968 8.75013 11.6667 8.75013C11.4366 8.75013 11.25 8.56357 11.25 8.33346V7.08347C11.25 6.85337 11.4366 6.66681 11.6667 6.66681C11.8968 6.66681 12.0833 6.85337 12.0833 7.08347V8.33346ZM14.5833 7.08347C14.5833 6.85337 14.7699 6.66681 15 6.66681C15.2301 6.66681 15.4167 6.85337 15.4167 7.08347V8.33346C15.4167 8.56357 15.2301 8.75013 15 8.75013C14.7699 8.75013 14.5833 8.56357 14.5833 8.33346V7.08347ZM12.9167 7.08347C12.9167 6.85337 13.1032 6.66681 13.3333 6.66681C13.5634 6.66681 13.75 6.85337 13.75 7.08347V8.33346C13.75 8.56357 13.5634 8.75013 13.3333 8.75013C13.1032 8.75013 12.9167 8.56357 12.9167 8.33346V7.08347ZM17.9167 10.0001H12.5C12.5 9.99595 12.5 9.99262 12.5 9.98845C12.4996 9.90559 12.491 9.82293 12.4742 9.74179C12.4717 9.73054 12.4662 9.72012 12.4637 9.70845C12.4563 9.67804 12.4454 9.6497 12.4358 9.62012C12.4182 9.56674 12.3969 9.51471 12.3721 9.46429C12.36 9.43929 12.3542 9.41096 12.3404 9.38679C12.3452 9.38356 12.3497 9.38007 12.3542 9.37637C12.3733 9.36387 12.39 9.34887 12.4083 9.33471C12.4396 9.31137 12.4725 9.28971 12.5017 9.26346C12.5258 9.28512 12.5538 9.30221 12.5796 9.32179C12.6054 9.34137 12.6308 9.36346 12.6587 9.38096C12.6981 9.40523 12.7387 9.42736 12.7804 9.44721C12.8088 9.46096 12.8354 9.47721 12.8637 9.48887C12.9124 9.50752 12.9622 9.52299 13.0129 9.53512C13.0392 9.54221 13.0637 9.55221 13.0908 9.55762C13.2511 9.59038 13.4164 9.59038 13.5767 9.55762C13.6037 9.55221 13.6283 9.54221 13.6546 9.53512C13.7053 9.52299 13.7551 9.50752 13.8038 9.48887C13.8333 9.47679 13.86 9.46054 13.8871 9.44721C13.929 9.42736 13.9697 9.40523 14.0092 9.38096C14.0367 9.36262 14.0617 9.34179 14.0879 9.32179C14.1142 9.30179 14.1417 9.28512 14.1658 9.26346C14.19 9.28512 14.2179 9.30221 14.2438 9.32179C14.2696 9.34137 14.295 9.36346 14.3229 9.38096C14.3622 9.40523 14.4029 9.42736 14.4446 9.44721C14.4729 9.46096 14.4996 9.47721 14.5279 9.48887C14.5766 9.50752 14.6264 9.52299 14.6771 9.53512C14.7033 9.54221 14.7279 9.55221 14.755 9.55762C15.4297 9.69476 16.0879 9.25898 16.225 8.58429C16.2418 8.50174 16.2502 8.41773 16.25 8.33346H17.9167V10.0001ZM20.4167 13.3334C20.4167 13.7937 20.0436 14.1668 19.5833 14.1668C19.1231 14.1668 18.75 13.7937 18.75 13.3334V5.00015C18.75 4.53989 19.1231 4.16682 19.5833 4.16682C20.0436 4.16682 20.4167 4.53989 20.4167 5.00015V13.3334ZM22.5 11.4584C22.5 11.8036 22.2202 12.0834 21.875 12.0834C21.5298 12.0834 21.25 11.8036 21.25 11.4584V6.87514C21.25 6.52999 21.5298 6.25014 21.875 6.25014C22.2202 6.25014 22.5 6.52999 22.5 6.87514V11.4584ZM24.1667 10.0001H23.3333V8.33346H24.1667V10.0001Z" fill="#A1A1A1"/>
</svg>
