<svg width="100" height="100" viewBox="0 0 100 100" fill="none" xmlns="http://www.w3.org/2000/svg">
<circle cx="50.3333" cy="50.3333" r="40.8333" stroke="#FFCD01" stroke-width="3"/>
<circle cx="50" cy="50" r="48.5" stroke="#FFCD01" stroke-width="3"/>
<path d="M62.2016 67.9688H59.8578L58.2953 64.8438H54.6875V57.8125H53.125V64.8438H46.875V57.8125H45.3125V64.8438H41.7047L40.1422 67.9688H37.7985L34.6735 74.2188H65.3266L62.2016 67.9688ZM42.6703 66.4062H57.3297L58.111 67.9688H41.8891L42.6703 66.4062ZM38.7641 69.5312H61.236L62.7985 72.6562H37.2016L38.7641 69.5312Z" fill="#E0E0E0"/>
<path d="M52.3438 48.1141L50 45.7703L47.6562 48.1141V41.4062H46.0938V51.8859L50 47.9797L53.9062 51.8859V41.4062H52.3438V48.1141Z" fill="#E0E0E0"/>
<path d="M38.4328 33.5938H42.9688V32.0312H37.5H36.5672H36.5617C33.2023 32.0312 30.4688 34.7648 30.4688 38.1234C30.4688 40.4461 31.7586 42.5344 33.8367 43.5727L38.4078 45.8578C39.293 46.3016 39.8438 47.1922 39.8438 48.1828C39.8438 49.6156 38.6781 50.7812 37.2453 50.7812H35.9375V52.3438H37.2453C39.0875 52.3438 40.6367 51.132 41.182 49.4695C41.9766 51.3711 42.8578 53.2391 43.8445 55.0602L45.218 54.3156C42.1664 48.6859 40.0477 42.6359 38.9219 36.3336L38.4328 33.5938ZM38.1156 40.0594L35.7922 38.8977C35.4 38.7016 35.1562 38.307 35.1562 37.8688C35.1562 37.2352 35.6719 36.7188 36.3063 36.7188H37.4062C37.6086 37.8414 37.8516 38.9531 38.1156 40.0594ZM39.1062 44.4609L34.5352 42.1758C32.9914 41.4031 32.0312 39.8508 32.0312 38.1234C32.0312 35.6258 34.0641 33.5938 36.5617 33.5938H36.8461L37.125 35.1562H36.3063C34.8109 35.1562 33.5938 36.3734 33.5938 37.8688C33.5938 38.9031 34.168 39.8328 35.093 40.2945L38.6266 42.0609C38.8633 42.9234 39.1203 43.7789 39.3938 44.6297C39.2984 44.5727 39.207 44.5109 39.1062 44.4609Z" fill="#E0E0E0"/>
<path d="M63.4382 32.0312H63.4328H62.5H57.0312V33.5938H61.5671L61.0781 36.3328C59.9531 42.6352 57.8343 48.6852 54.782 54.3148L56.1554 55.0594C57.1429 53.2383 58.0234 51.3703 58.8179 49.4688C59.364 51.132 60.9125 52.3438 62.7546 52.3438H64.0625V50.7812H62.7546C61.3218 50.7812 60.1562 49.6156 60.1562 48.1828C60.1562 47.1922 60.707 46.3016 61.5929 45.8586L66.164 43.5734C68.2414 42.5344 69.5312 40.4461 69.5312 38.1234C69.5312 34.7648 66.7976 32.0312 63.4382 32.0312ZM63.6937 36.7188C64.3281 36.7188 64.8437 37.2352 64.8437 37.8688C64.8437 38.307 64.6 38.7008 64.2085 38.8969L61.8851 40.0586C62.1484 38.9531 62.3914 37.8414 62.5937 36.7188H63.6937ZM65.4648 42.175L60.8937 44.4602C60.7929 44.5109 60.7015 44.5727 60.6062 44.6297C60.8804 43.7789 61.1367 42.9234 61.3734 42.0609L64.907 40.2945C65.832 39.8328 66.4062 38.9031 66.4062 37.8688C66.4062 36.3734 65.189 35.1562 63.6937 35.1562H62.875L63.1539 33.5938H63.4382C65.9359 33.5938 67.9687 35.6258 67.9687 38.1234C67.9687 39.8508 67.0085 41.4031 65.4648 42.175Z" fill="#E0E0E0"/>
<path d="M58.5938 34.375C58.5938 33.7758 58.3656 33.214 57.9703 32.7898C58.1727 32.2461 58.1687 31.6406 57.9398 31.0875C57.7109 30.5336 57.2852 30.1015 56.757 29.8601C56.7359 29.2804 56.5 28.7219 56.0758 28.2976C55.6523 27.8742 55.0937 27.639 54.5148 27.6179C54.2727 27.0906 53.8422 26.6648 53.2891 26.4351C52.7352 26.2062 52.1305 26.2015 51.5852 26.4039C50.7352 25.6133 49.2641 25.6133 48.4141 26.4039C47.8695 26.2008 47.2641 26.2054 46.7102 26.4351C46.157 26.664 45.7258 27.0898 45.4844 27.6179C44.9055 27.639 44.3469 27.875 43.9227 28.2984C43.4992 28.7219 43.2633 29.2804 43.2422 29.8601C42.7141 30.1015 42.2883 30.5328 42.0602 31.0867C41.8305 31.6398 41.8266 32.2461 42.0289 32.7898C41.6344 33.214 41.4062 33.7758 41.4062 34.375C41.4062 34.9742 41.6344 35.5359 42.0297 35.9601C41.8273 36.5039 41.8312 37.1101 42.0609 37.6625C42.2898 38.2164 42.7148 38.6484 43.243 38.8898C43.2641 39.4695 43.5 40.0273 43.9242 40.4523C44.3477 40.8758 44.9063 41.1109 45.4852 41.132C45.7273 41.6594 46.1578 42.0851 46.7109 42.3148C47.2656 42.5437 47.8703 42.5484 48.4148 42.3461C48.8398 42.7406 49.4008 42.9687 50 42.9687C50.5992 42.9687 51.1602 42.7406 51.5852 42.3453C52.1289 42.5476 52.7344 42.5429 53.2891 42.314C53.8422 42.0851 54.2734 41.6594 54.5148 41.1312C55.0937 41.1101 55.6523 40.8742 56.0773 40.4508C56.5 40.0273 56.7359 39.4687 56.757 38.889C57.2852 38.6476 57.7102 38.2164 57.9391 37.6625C58.1687 37.1094 58.1727 36.5031 57.9703 35.9594C58.3656 35.5359 58.5938 34.9742 58.5938 34.375ZM50 38.2812C47.843 38.2812 46.0938 36.532 46.0938 34.375C46.0938 32.2179 47.843 30.4687 50 30.4687C52.157 30.4687 53.9062 32.2179 53.9062 34.375C53.9062 36.532 52.157 38.2812 50 38.2812Z" fill="#F0BC5E"/>
<path d="M50 39.0625C47.4148 39.0625 45.3125 36.9602 45.3125 34.375C45.3125 31.7898 47.4148 29.6875 50 29.6875C52.5852 29.6875 54.6875 31.7898 54.6875 34.375C54.6875 36.9602 52.5852 39.0625 50 39.0625ZM50 31.25C48.2766 31.25 46.875 32.6516 46.875 34.375C46.875 36.0984 48.2766 37.5 50 37.5C51.7234 37.5 53.125 36.0984 53.125 34.375C53.125 32.6516 51.7234 31.25 50 31.25Z" fill="#E0E0E0"/>
<path d="M57.8125 58.5938H42.1875V53.9062H57.8125V58.5938Z" fill="#F0BC5E"/>
</svg>
